<svg width="147" height="148" viewBox="0 0 147 148" fill="none" xmlns="http://www.w3.org/2000/svg">
<rect x="146.087" y="1.37549" width="10" height="10" transform="rotate(90.5399 146.087 1.37549)" fill="#6E0CD4"/>
<rect x="145.927" y="18.375" width="10" height="10" transform="rotate(90.5399 145.927 18.375)" fill="#6E0CD4"/>
<rect x="145.767" y="35.374" width="10" height="10" transform="rotate(90.5399 145.767 35.374)" fill="#6E0CD4"/>
<rect x="145.607" y="52.3735" width="10" height="10" transform="rotate(90.5399 145.607 52.3735)" fill="#6E0CD4"/>
<rect x="145.447" y="69.3726" width="10" height="10" transform="rotate(90.5399 145.447 69.3726)" fill="#6E0CD4"/>
<rect x="145.287" y="86.3721" width="10" height="10" transform="rotate(90.5399 145.287 86.3721)" fill="#6E0CD4"/>
<rect x="145.126" y="103.371" width="10" height="10" transform="rotate(90.5399 145.126 103.371)" fill="#6E0CD4"/>
<rect x="144.966" y="120.371" width="10" height="10" transform="rotate(90.5399 144.966 120.371)" fill="#6E0CD4"/>
<rect x="144.806" y="137.37" width="10" height="10" transform="rotate(90.5399 144.806 137.37)" fill="#6E0CD4"/>
<rect x="128.127" y="103.211" width="10" height="10" transform="rotate(90.5399 128.127 103.211)" fill="#6E0CD4"/>
<rect x="128.287" y="86.2119" width="10" height="10" transform="rotate(90.5399 128.287 86.2119)" fill="#6E0CD4"/>
<rect x="128.447" y="69.2124" width="10" height="10" transform="rotate(90.5399 128.447 69.2124)" fill="#6E0CD4"/>
<rect x="128.607" y="52.2134" width="10" height="10" transform="rotate(90.5399 128.607 52.2134)" fill="#6E0CD4"/>
<rect x="128.768" y="35.2139" width="10" height="10" transform="rotate(90.5399 128.768 35.2139)" fill="#6E0CD4"/>
<rect x="128.928" y="18.2148" width="10" height="10" transform="rotate(90.5399 128.928 18.2148)" fill="#6E0CD4"/>
<rect x="129.088" y="1.21533" width="10" height="10" transform="rotate(90.5399 129.088 1.21533)" fill="#6E0CD4"/>
<rect x="111.608" y="52.0532" width="10" height="10" transform="rotate(90.5399 111.608 52.0532)" fill="#6E0CD4"/>
<rect x="111.448" y="69.0522" width="10" height="10" transform="rotate(90.5399 111.448 69.0522)" fill="#6E0CD4"/>
<rect x="111.288" y="86.0518" width="10" height="10" transform="rotate(90.5399 111.288 86.0518)" fill="#6E0CD4"/>
<rect x="111.769" y="35.0537" width="10" height="10" transform="rotate(90.5399 111.769 35.0537)" fill="#6E0CD4"/>
<rect x="111.929" y="18.0547" width="10" height="10" transform="rotate(90.5399 111.929 18.0547)" fill="#6E0CD4"/>
<rect x="112.089" y="1.05518" width="10" height="10" transform="rotate(90.5399 112.089 1.05518)" fill="#6E0CD4"/>
<rect x="94.7695" y="34.8936" width="10" height="10" transform="rotate(90.5399 94.7695 34.8936)" fill="#6E0CD4"/>
<rect x="94.6094" y="51.8931" width="10" height="10" transform="rotate(90.5399 94.6094 51.8931)" fill="#6E0CD4"/>
<rect x="94.4487" y="68.8921" width="10" height="10" transform="rotate(90.5399 94.4487 68.8921)" fill="#6E0CD4"/>
<rect x="77.4497" y="68.7319" width="10" height="10" transform="rotate(90.5399 77.4497 68.7319)" fill="#6E0CD4"/>
<rect x="77.6099" y="51.7324" width="10" height="10" transform="rotate(90.5399 77.6099 51.7324)" fill="#6E0CD4"/>
<rect x="94.9297" y="17.8945" width="10" height="10" transform="rotate(90.5399 94.9297 17.8945)" fill="#6E0CD4"/>
<rect x="95.0898" y="0.89502" width="10" height="10" transform="rotate(90.5399 95.0898 0.89502)" fill="#6E0CD4"/>
<rect x="77.9302" y="17.7344" width="10" height="10" transform="rotate(90.5399 77.9302 17.7344)" fill="#6E0CD4"/>
<rect x="77.77" y="34.7334" width="10" height="10" transform="rotate(90.5399 77.77 34.7334)" fill="#6E0CD4"/>
<rect x="78.0903" y="0.734863" width="10" height="10" transform="rotate(90.5399 78.0903 0.734863)" fill="#6E0CD4"/>
<rect x="60.9312" y="17.5742" width="10" height="10" transform="rotate(90.5399 60.9312 17.5742)" fill="#6E0CD4"/>
<rect x="60.771" y="34.5732" width="10" height="10" transform="rotate(90.5399 60.771 34.5732)" fill="#6E0CD4"/>
<rect x="61.0913" y="0.574707" width="10" height="10" transform="rotate(90.5399 61.0913 0.574707)" fill="#6E0CD4"/>
<rect x="43.9316" y="17.4136" width="10" height="10" transform="rotate(90.5399 43.9316 17.4136)" fill="#6E0CD4"/>
<rect x="44.0918" y="0.414551" width="10" height="10" transform="rotate(90.5399 44.0918 0.414551)" fill="#6E0CD4"/>
<rect x="27.0928" y="0.254395" width="10" height="10" transform="rotate(90.5399 27.0928 0.254395)" fill="#6E0CD4"/>
<rect x="10.0938" y="0.0942383" width="10" height="10" transform="rotate(90.5399 10.0938 0.0942383)" fill="#6E0CD4"/>
</svg>
