<svg width="123" height="111" viewBox="0 0 123 111" fill="none" xmlns="http://www.w3.org/2000/svg">
<path d="M75.7234 80.4194C72.4279 85.1322 69.0134 89.4242 65.5744 93.2048C75.2922 102.744 84.33 107.211 89.3444 104.283C94.3587 101.354 95.0531 91.204 91.7449 77.9219C86.7881 79.0439 81.4065 79.8892 75.7234 80.4194ZM68.1109 80.9313C65.9382 81.0224 63.7323 81.0689 61.4997 81.0689C59.2672 81.0689 57.0613 81.0224 54.8891 80.9313C57.0781 83.825 59.2945 86.5059 61.4997 88.9487C63.705 86.5059 65.9213 83.825 68.1109 80.9313ZM97.4025 34.5333C112.887 39.0263 123 46.4913 123 55.5002C123 64.5086 112.887 71.9741 97.4025 76.4671C101.298 92.2779 99.9628 104.869 92.2499 109.373C84.5369 113.877 73.0892 108.751 61.4997 97.4334C49.9108 108.751 38.4629 113.877 30.75 109.373C23.037 104.869 21.7017 92.2779 25.5973 76.4671C10.1126 71.9741 0 64.5086 0 55.5002C0 46.4913 10.1126 39.0263 25.5973 34.5333C21.7017 18.7225 23.037 6.13138 30.75 1.62707C38.4629 -2.87724 49.9108 2.24871 61.4997 13.5665C73.0892 2.24871 84.5369 -2.87724 92.2499 1.62707C99.9628 6.13138 101.298 18.7225 97.4025 34.5333ZM91.7449 33.0785C95.0531 19.7964 94.3587 9.64574 89.3444 6.71746C84.33 3.78911 75.2922 8.25598 65.5744 17.795C69.0134 21.5757 72.4279 25.8676 75.7234 30.5806C81.4065 31.111 86.7881 31.9561 91.7449 33.0785ZM31.2548 77.9219C27.9466 91.204 28.6412 101.354 33.6555 104.283C38.6697 107.211 47.7078 102.744 57.4256 93.2048C53.9861 89.4242 50.5715 85.1322 47.2762 80.4194C41.5934 79.8892 36.2114 79.0439 31.2548 77.9219ZM54.8891 30.0688C57.0613 29.9778 59.2672 29.9315 61.4997 29.9315C63.7323 29.9315 65.9382 29.9778 68.1109 30.0688C65.9213 27.1753 63.705 24.494 61.4997 22.0513C59.2945 24.494 57.0781 27.1753 54.8891 30.0688ZM47.2762 30.5806C50.5715 25.8676 53.9861 21.5757 57.4256 17.795C47.7078 8.25598 38.6697 3.78911 33.6555 6.71746C28.6412 9.64574 27.9466 19.7964 31.2548 33.0785C36.2114 31.9561 41.5934 31.111 47.2762 30.5806ZM72.5035 74.7784C74.5118 71.7989 76.4741 68.6472 78.3586 65.3456C80.2432 62.0435 81.9603 58.7489 83.5072 55.5002C81.9603 52.251 80.2432 48.9564 78.3586 45.6549C76.4741 42.3528 74.5118 39.2012 72.5035 36.2218C68.9483 35.9523 65.2693 35.8093 61.4997 35.8093C57.7307 35.8093 54.0512 35.9523 50.496 36.2218C48.4878 39.2012 46.5257 42.3528 44.6411 45.6549C42.7564 48.9564 41.0392 52.251 39.4924 55.5002C41.0392 58.7489 42.7564 62.0435 44.6411 65.3456C46.5257 68.6472 48.4878 71.7989 50.496 74.7784C54.0512 75.0476 57.7307 75.191 61.4997 75.191C65.2693 75.191 68.9483 75.0476 72.5035 74.7784ZM79.9683 74.0066C83.5403 73.5358 86.9438 72.9351 90.1381 72.2245C89.1491 69.071 87.9619 65.7894 86.5789 62.4249C85.5707 64.3734 84.5073 66.3284 83.391 68.2846C82.2747 70.2401 81.1322 72.1492 79.9683 74.0066ZM43.0316 36.9935C39.4596 37.4645 36.0559 38.0652 32.8618 38.7757C33.8505 41.9289 35.0381 45.2111 36.4208 48.5756C37.4291 46.6271 38.4923 44.6715 39.6086 42.7158C40.7249 40.7599 41.8675 38.851 43.0316 36.9935ZM32.8618 72.2245C36.0559 72.9351 39.4596 73.5358 43.0316 74.0066C41.8675 72.1492 40.7249 70.2401 39.6086 68.2846C38.4923 66.3284 37.4291 64.3734 36.4208 62.4249C35.0381 65.7894 33.8505 69.071 32.8618 72.2245ZM27.1804 70.7832C28.6978 65.8805 30.6652 60.7433 33.0526 55.5002C30.6652 50.2566 28.6978 45.12 27.1804 40.2166C14.1545 43.9597 5.81101 49.6436 5.81101 55.5002C5.81101 61.3563 14.1545 67.0402 27.1804 70.7832ZM90.1381 38.7757C86.9438 38.0652 83.5403 37.4645 79.9683 36.9935C81.1322 38.851 82.2747 40.7599 83.391 42.7158C84.5073 44.6715 85.5707 46.6271 86.5789 48.5756C87.9619 45.2111 89.1491 41.9289 90.1381 38.7757ZM95.8196 40.2166C94.3017 45.12 92.3347 50.2566 89.947 55.5002C92.3347 60.7433 94.3017 65.8805 95.8196 70.7832C108.846 67.0402 117.189 61.3563 117.189 55.5002C117.189 49.6436 108.846 43.9597 95.8196 40.2166ZM61.4997 66.5453C55.4691 66.5453 50.5803 61.6003 50.5803 55.5002C50.5803 49.3996 55.4691 44.4546 61.4997 44.4546C67.531 44.4546 72.4198 49.3996 72.4198 55.5002C72.4198 61.6003 67.531 66.5453 61.4997 66.5453Z" fill="#01A3B3"/>
</svg>
