<svg width="109" height="109" viewBox="0 0 109 109" fill="none" xmlns="http://www.w3.org/2000/svg">
<path fill-rule="evenodd" clip-rule="evenodd" d="M64.204 0C63.4548 0.00850759 62.712 0.140024 62.0054 0.389285C68.2855 4.50793 60.9139 10.4874 64.3444 15.5714C64.1044 13.8696 64.3748 12.1349 65.1213 10.5864C65.8678 9.03787 67.0571 7.74496 68.5389 6.87089C69.6499 5.94829 70.3594 5.61739 70.1216 4.09139C69.7474 1.59218 66.4105 0 64.204 0ZM73.17 1.61164C72.3046 5.98332 71.2209 6.14293 68.0126 8.95746C66.7601 9.94165 65.8758 11.3183 65.5024 12.8657C65.129 14.413 65.2882 16.0408 65.9544 17.4867C52.7003 12.3481 35.7118 9.24164 23.2569 18.1329C18.7778 21.329 16.0412 25.9186 10.5174 27.7911C6.94663 29.0096 3.43821 28.6514 1.20841 32.1861C0.390066 33.2068 -0.0374312 34.4852 0.00257347 35.7921C0.0425781 37.0991 0.547468 38.349 1.42672 39.3179C2.08942 39.9991 3.37584 40.4351 3.906 41.128C4.21396 41.5173 4.20616 41.9066 4.49853 42.4244C5.01399 43.6316 5.76088 44.7266 6.69714 45.6476C7.26629 46.1187 9.2388 46.578 9.57405 47.0802C9.99116 47.707 8.89965 50.1945 9.81574 50.5838C10.4356 50.868 12.2404 47.6875 12.4159 47.4072C12.0572 49.9103 11.5855 54.3521 14.404 50.6539C15.7411 48.8982 15.8229 48.3181 18.0722 47.9289C22.5114 47.1696 27.0601 47.3374 31.4311 48.4218C35.8021 49.5062 39.9006 51.4836 43.4679 54.2292C47.0352 56.9748 49.9939 60.429 52.1573 64.3738C54.3207 68.3186 55.6418 72.6684 56.0372 77.1486C55.6162 75.2022 53.0707 72.0879 50.7005 72.8276C49.6909 73.139 49.3166 74.8791 48.6539 75.8874C47.8173 77.1667 46.7847 78.3069 45.5938 79.2664C45.7972 77.3792 45.7024 75.4718 45.3132 73.6139C44.6037 76.5258 43.1808 81.3568 39.5983 80.5744C38.4049 80.3924 37.2867 79.8791 36.3713 79.0931C35.456 78.307 34.7803 77.2798 34.4215 76.1287C33.9576 73.1701 37.0879 69.7016 32.0552 69.4564C21.9588 68.962 24.2938 83.7899 30.2542 87.6555C28.8844 87.8068 27.5482 88.1789 26.2975 88.7571C30.0808 90.9525 34.3436 92.1921 38.7157 92.3681C43.0878 92.5442 47.4367 91.6513 51.3847 89.7672C55.3326 87.883 58.7601 85.0646 61.3692 81.5568C63.9783 78.049 65.6901 73.958 66.3559 69.6393C67.7443 75.957 66.8524 82.5614 63.8376 88.2861C62.5758 90.6793 60.9593 92.8684 59.0428 94.7794C57.8733 95.9473 55.5577 97.2319 54.7976 98.4426C59.5286 97.8179 64.1519 96.5501 68.5389 94.6743C63.998 100.853 57.9627 105.782 50.9968 109C58.4766 108.471 65.707 106.092 72.036 102.076C78.365 98.0602 83.5937 92.5345 87.2505 85.9971C86.0851 92.5355 83.4968 98.7387 79.6684 104.169C84.8177 100.726 89.1986 96.2579 92.5361 91.0439C95.8735 85.83 98.0954 79.9832 99.0621 73.8709C100.02 78.3455 100.295 82.9391 99.8769 87.4959C104.108 81.627 106.967 74.885 108.243 67.7663C109.519 60.6477 109.179 53.334 107.248 46.3639C105.771 40.946 103.556 35.7564 100.664 30.9404C99.5453 29.0637 98.3206 27.252 96.9961 25.5138C96.4776 24.8403 93.706 22.3761 93.706 21.6209C93.6826 21.6962 93.6631 21.6962 93.6475 21.6209C93.6475 34.335 80.0036 42.2959 68.5779 38.9948C73.0009 38.6481 77.1731 36.8049 80.4052 33.7699C83.6372 30.7348 85.7357 26.6894 86.3539 22.3022C86.8754 17.8657 85.8492 13.3854 83.4483 9.61639C81.0475 5.84741 77.4149 3.02031 73.17 1.61164Z" fill="url(#paint0_linear_633_10)"/>
<path d="M95.047 64.6214C97.1495 65.1107 99.0611 66.2074 100.544 67.7746C101.354 68.6224 102.061 69.5632 102.649 70.5775C102.649 70.5775 98.7503 73.2636 96.5283 74.7039C96.1859 74.506 95.9135 74.2067 95.7487 73.8475C95.3264 73.1178 94.726 72.5067 94.0035 72.071C93.281 71.6354 92.4598 71.3895 91.6165 71.3561C91.1557 71.2528 90.6791 71.2414 90.2138 71.3226C89.7486 71.4037 89.3041 71.5758 88.9056 71.829C88.5072 72.0822 88.1628 72.4115 87.8921 72.798C87.6215 73.1844 87.4299 73.6205 87.3285 74.0811C87.267 74.3518 87.2382 74.6288 87.2427 74.9064C87.2237 75.4764 87.3583 76.0411 87.6325 76.5414C88.8566 78.2698 90.674 79.489 92.7392 79.9671C99.0544 82.6921 101.744 84.4828 103.42 87.0131C104.364 88.6218 104.943 90.4172 105.119 92.2732C105.294 94.1293 105.06 96.0011 104.434 97.7574C103.615 99.7308 102.27 101.442 100.545 102.705C98.8193 103.968 96.7803 104.734 94.6494 104.92C92.4232 105.201 90.1706 105.201 87.9444 104.92C84.5319 104.362 81.3891 102.725 78.9784 100.249C78.0644 99.2271 77.2909 98.0881 76.6785 96.8621L77.4971 96.356L80.7716 94.4874L83.3055 93.0081L83.8512 93.7867C84.7434 95.0642 85.8834 96.1498 87.2037 96.9789C88.5327 97.7076 90.0383 98.0534 91.5525 97.9778C93.0668 97.9022 94.5303 97.4081 95.7799 96.5506C96.4088 95.9197 96.8021 95.0925 96.8943 94.207C96.9866 93.3216 96.7721 92.4313 96.2866 91.6846C94.5865 90.0452 92.5129 88.8428 90.2443 88.181C87.0305 87.0773 84.1201 85.2375 81.7462 82.8089C80.6297 81.5356 79.8048 80.0344 79.3293 78.4099C79.0291 76.5534 79.0291 74.6608 79.3293 72.8042C79.7965 70.6519 80.9145 68.6949 82.5321 67.1979C84.1496 65.701 86.1886 64.7363 88.3732 64.4346C90.5946 64.1629 92.8443 64.2259 95.047 64.6214ZM74.3473 68.2807V71.9011H62.8865V104.445H54.7781V71.9011H43.3173V68.3586C43.251 67.1527 43.251 65.9441 43.3173 64.7382H74.5032V68.3196L74.3473 68.2807Z" fill="#007ACC"/>
<defs>
<linearGradient id="paint0_linear_633_10" x1="54.4935" y1="109" x2="54.4935" y2="0" gradientUnits="userSpaceOnUse">
<stop stop-color="#FF0844"/>
<stop offset="1" stop-color="#FF0844"/>
</linearGradient>
</defs>
</svg>
