<svg width="109" height="111" viewBox="0 0 109 111" fill="none" xmlns="http://www.w3.org/2000/svg">
<path d="M18.1667 0C8.13352 0 0 8.28276 0 18.5V92.5C0 102.718 8.13352 111 18.1667 111H90.8333C100.867 111 109 102.718 109 92.5V18.5C109 8.28276 100.867 0 90.8333 0H18.1667ZM62.5805 80.5058C66.9327 84.0782 71.2842 85.8418 75.6363 85.7968C78.3008 85.7968 80.3433 85.2992 81.7645 84.3045C83.141 83.3548 83.8295 81.9982 83.8295 80.2345C83.8295 78.4258 83.141 76.8878 81.7645 75.6218C80.3433 74.3558 77.6571 73.0892 73.7046 71.8232C68.9528 70.4215 65.2892 68.6122 62.7137 66.3965C60.1825 64.1808 58.8945 61.0827 58.8503 57.1033C58.8503 53.3497 60.449 50.2071 63.6463 47.6745C66.7546 45.1418 70.7295 43.8758 75.5697 43.8758C82.3198 43.8758 87.7371 45.5488 91.8228 48.8955L87.16 56.2893C85.5172 54.9777 83.6296 54.028 81.4981 53.4403C79.3665 52.762 77.4572 52.4228 75.7695 52.4228C73.4605 52.4228 71.6172 52.8526 70.2408 53.7117C68.8644 54.5707 68.1759 55.7016 68.1759 57.1033C68.1759 58.6407 69.0194 59.9523 70.7071 61.0377C72.3948 62.078 75.2808 63.2311 79.3665 64.4972C84.2958 65.9895 87.8037 67.9795 89.8911 70.4665C91.9784 72.9535 93.0218 76.1195 93.0218 79.9632C93.0218 83.8975 91.534 87.2892 88.5589 90.1382C85.628 92.9421 81.3649 94.4117 75.7695 94.5473C68.4423 94.5473 62.3141 92.3088 57.3849 87.8318L62.5805 80.5058ZM29.0912 84.4402C30.5122 85.3448 32.2219 85.7968 34.2202 85.7968C36.3074 85.7968 38.0393 85.1863 39.4159 83.9653C40.7926 82.6993 41.4809 80.5058 41.4809 77.3855V44.6898H50.4737V79.1492C50.3404 84.4852 48.8302 88.3295 45.9441 90.6808C44.3006 92.0825 42.5021 93.0778 40.5483 93.6655C38.5944 94.2532 36.7071 94.5473 34.8864 94.5473C31.5558 94.5473 28.6027 93.9596 26.0271 92.7837C23.2739 91.5176 20.9646 89.2791 19.0995 86.0682L25.361 80.845C26.5156 82.428 27.759 83.6262 29.0912 84.4402Z" fill="#F5B326"/>
</svg>
