<svg width="109" height="112" viewBox="0 0 109 112" fill="none" xmlns="http://www.w3.org/2000/svg">
<path d="M98.3555 1H10.6445C4.76572 1 0 5.85316 0 11.8398V101.16C0 107.147 4.76572 112 10.6445 112H98.3555C104.234 112 109 107.147 109 101.16V11.8398C109 5.85316 104.234 1 98.3555 1Z" fill="#3178C6"/>
<path d="M98.3555 0H10.6445C4.76572 0 0 4.85316 0 10.8398V100.16C0 106.147 4.76572 111 10.6445 111H98.3555C104.234 111 109 106.147 109 100.16V10.8398C109 4.85316 104.234 0 98.3555 0Z" fill="#3178C6"/>
<path fill-rule="evenodd" clip-rule="evenodd" d="M67.3876 82.5138V93.3028C69.1215 94.2019 71.1723 94.8761 73.5399 95.3256C75.9075 95.7752 78.4028 96 81.0261 96C83.5827 96 86.0112 95.7528 88.3121 95.2582C90.6131 94.7638 92.6306 93.9489 94.3646 92.8138C96.0985 91.6789 97.4713 90.1953 98.4827 88.3634C99.4942 86.5315 100 84.267 100 81.5698C100 79.6142 99.7111 77.9004 99.133 76.4282C98.555 74.956 97.7215 73.6468 96.632 72.5004C95.5428 71.3541 94.2367 70.3256 92.7139 69.4153C91.1911 68.505 89.4738 67.6453 87.5619 66.8362C86.1614 66.2517 84.9054 65.6843 83.7938 65.1336C82.6822 64.5828 81.7375 64.0209 80.9594 63.4478C80.1812 62.8746 79.581 62.2677 79.1587 61.6272C78.7364 60.9864 78.5251 60.2616 78.5251 59.4524C78.5251 58.7108 78.7141 58.042 79.092 57.4463C79.47 56.8506 80.0036 56.3394 80.6926 55.9123C81.3819 55.4853 82.2265 55.1537 83.2269 54.9177C84.2274 54.6817 85.3388 54.5638 86.5616 54.5638C87.4507 54.5638 88.3899 54.6313 89.3792 54.766C90.3685 54.9009 91.3633 55.1088 92.3639 55.3897C93.3642 55.6707 94.3367 56.0248 95.2816 56.4517C96.2264 56.8789 97.0989 57.3733 97.8992 57.9353V47.8543C96.2764 47.225 94.5035 46.7586 92.5805 46.4552C90.6576 46.1517 88.4511 46 85.9614 46C83.4269 46 81.0261 46.2754 78.7586 46.8261C76.4911 47.3767 74.4959 48.2364 72.7729 49.4052C71.05 50.5741 69.6885 52.0631 68.6881 53.8726C67.6878 55.6819 67.1875 57.8453 67.1875 60.3627C67.1875 63.5769 68.1045 66.3192 69.9386 68.5894C71.7725 70.8595 74.5569 72.7813 78.2918 74.3547C79.7589 74.9616 81.1262 75.5571 82.3933 76.1416C83.6604 76.7261 84.7554 77.333 85.6778 77.9623C86.6004 78.5916 87.3284 79.2772 87.8621 80.019C88.3957 80.7606 88.6624 81.6034 88.6624 82.5476C88.6624 83.2444 88.4956 83.8905 88.1621 84.4862C87.8287 85.0819 87.3229 85.5987 86.6449 86.0371C85.9669 86.4754 85.1221 86.8181 84.1107 87.0653C83.099 87.3127 81.9154 87.4362 80.5592 87.4362C78.2472 87.4362 75.9576 87.0261 73.6899 86.2056C71.4224 85.3853 69.3216 84.1547 67.3876 82.5138ZM49.456 55.9315H63.1392V47.0776H25V55.9315H38.6163V95.3534H49.456V55.9315Z" fill="white"/>
</svg>
