<svg width="109" height="111" viewBox="0 0 109 111" fill="none" xmlns="http://www.w3.org/2000/svg">
<path d="M50.9306 0.0298705C50.6962 0.0515682 49.9503 0.12751 49.2791 0.181754C33.7975 1.60295 19.2961 10.1084 10.1115 23.1813C4.99717 30.45 1.7261 38.6952 0.490127 47.4285C0.0532747 50.477 0 51.3775 0 55.5109C0 59.6443 0.0532747 60.5447 0.490127 63.5933C3.4522 84.4339 18.0175 101.944 37.7717 108.432C41.3092 109.592 45.0384 110.384 49.2791 110.862C50.9306 111.046 58.0694 111.046 59.7209 110.862C67.0409 110.037 73.242 108.193 79.358 105.014C80.2956 104.526 80.4767 104.396 80.3489 104.287C80.2636 104.222 76.268 98.7652 71.4733 92.1691L62.7576 80.1811L51.8363 63.7234C45.8269 54.6755 40.883 47.2766 40.8404 47.2766C40.7978 47.2657 40.7551 54.5779 40.7338 63.5065C40.7019 79.1396 40.6912 79.7689 40.4994 80.1377C40.2224 80.6693 40.0093 80.8863 39.5618 81.125C39.2208 81.2986 38.9225 81.3311 37.3136 81.3311H35.4703L34.9802 81.0165C34.6605 80.8104 34.4261 80.5392 34.2663 80.2245L34.0425 79.7363L34.0638 57.9844L34.0958 36.2216L34.4261 35.7985C34.5966 35.5707 34.9588 35.2778 35.2146 35.1367C35.6514 34.9198 35.8219 34.8981 37.6652 34.8981C39.8388 34.8981 40.2011 34.9849 40.7658 35.6141C40.9256 35.7877 46.8391 44.8573 53.914 55.7821C60.9889 66.7069 70.6635 81.624 75.4156 88.947L84.0461 102.259L84.483 101.966C88.3507 99.4053 92.4422 95.7601 95.6813 91.963C102.575 83.9023 107.018 74.0732 108.51 63.5933C108.947 60.5447 109 59.6443 109 55.5109C109 51.3775 108.947 50.477 108.51 47.4285C105.548 26.5878 90.9825 9.07781 71.2282 2.5902C67.7441 1.44022 64.0362 0.648255 59.8807 0.170906C58.8579 0.062417 51.815 -0.0569203 50.9306 0.0298705ZM73.242 33.5962C73.7535 33.8566 74.169 34.3556 74.3182 34.8764C74.4034 35.1584 74.4247 41.1904 74.4034 54.784L74.3715 74.2902L70.9938 69.0177L67.6056 63.7451V49.5657C67.6056 40.3984 67.6482 35.2452 67.7121 34.9957C67.8826 34.3882 68.2555 33.9108 68.767 33.6287C69.2038 33.4009 69.3636 33.3792 71.0365 33.3792C72.6134 33.3792 72.8904 33.4009 73.242 33.5962Z" fill="black"/>
</svg>
