<svg width="109" height="109" viewBox="0 0 109 109" fill="none" xmlns="http://www.w3.org/2000/svg">
<path d="M75.5255 76.1247C79.5478 75.6861 82.5994 72.0335 82.4606 67.6499C82.3222 63.2668 78.8542 59.76 74.6931 59.76H74.4159C70.1155 59.9062 66.7868 63.705 66.9256 68.2343C67.0644 70.4261 67.8963 72.3255 69.1447 73.6405C64.4288 83.4303 57.216 90.5897 46.3969 96.5802C39.0454 100.671 31.4167 102.133 23.788 101.11C17.546 100.233 12.6913 97.3113 9.63926 92.489C5.20091 85.3297 4.78492 77.5855 8.5301 69.8417C11.1657 64.2893 15.3264 60.1982 17.962 58.1526C17.4072 56.2532 16.5748 53.0388 16.1588 50.7012C-3.95381 66.043 -1.87302 86.7909 4.23013 96.5802C8.80728 103.886 18.1008 108.416 28.3651 108.416C31.1391 108.416 33.913 108.123 36.6874 107.393C54.4421 103.74 67.8968 92.6352 75.5255 76.1247ZM99.9381 58.0068C89.3962 45.0026 73.8611 37.8433 56.1065 37.8433H53.8873C52.6389 35.2133 50.0033 33.4597 47.0905 33.4597H46.8129C42.5134 33.6059 39.1846 37.4046 39.323 41.9345C39.4618 46.3176 42.9294 49.8244 47.0905 49.8244H47.3677C50.4193 49.6782 53.0549 47.6326 54.1645 44.8564H56.6613C67.2032 44.8564 77.1899 48.0708 86.2062 54.3538C93.1413 59.1756 98.1349 65.4586 100.909 73.0561C103.267 79.1929 103.128 85.1835 100.631 90.2977C96.7477 98.0414 90.2286 102.279 81.6286 102.279C76.0803 102.279 70.8095 100.525 68.0351 99.2102C66.5096 100.671 63.7352 103.009 61.7932 104.471C67.758 107.393 73.8611 109 79.6867 109C93.0025 109 102.851 101.256 106.596 93.5121C110.618 85.0373 110.341 70.4261 99.9381 58.0068ZM29.4747 78.6081C29.6135 82.9917 33.0811 86.498 37.2422 86.498H37.5198C41.8198 86.3523 45.1486 82.553 45.0097 78.0237C44.8714 73.6401 41.4034 70.1337 37.2422 70.1337H36.965C36.6874 70.1337 36.271 70.1337 35.9943 70.2795C30.3071 60.3439 27.9491 49.532 28.7815 37.8428C29.3359 29.0761 32.1103 21.4781 36.965 15.1951C40.9874 9.78889 48.7549 7.15891 54.0261 7.01315C68.7287 6.72073 74.9703 26.0074 75.3867 33.7516C77.1899 34.1898 80.2414 35.2128 82.3222 35.9434C80.6574 12.2736 66.7868 0 53.4713 0C40.9874 0 29.4747 9.49737 24.8971 23.5241C18.5168 42.2264 22.6779 60.1982 30.4455 74.3711C29.7523 75.3937 29.3359 77.0006 29.4747 78.6081Z" fill="#764ABC"/>
</svg>
